<svg width="71" height="110" xmlns="http://www.w3.org/2000/svg">
  <g id="svg_element">
    <path stroke-width="1.5" stroke="#000" fill="none" d="m34.7496,30.41653c0,0 21.16643,4.33328 21.16643,4.33328c0,0 13.16651,13.83317 12.99985,15.16649c-0.16667,1.33332 1.49998,13.99984 1.33332,13.99984c0.16666,0 -1.49999,10.66655 -1.49999,10.66655c0,0 -4.33328,10.49987 -4.49994,10.49987c0.16666,0 -10.49988,6.49993 -10.49988,6.49993c0,0 0.83332,7.16658 0.83332,7.16658c0,0 -5.49994,5.66661 -5.49994,5.66661c0,0 -7.16658,4.66661 -7.33324,4.66661c0.16666,0 -10.83322,0.16666 -10.83322,0.16666c0,0 -8.66656,-4.49994 -8.83322,-4.49995c0.16666,0.00001 -2.83331,-4.49994 -2.99997,-4.49994c0.16666,0 -1.83331,-4.49995 -1.99998,-4.49995c0.16667,0 1.49998,-4.66661 1.49998,-4.66661c0,0 -9.66655,-6.49993 -9.66655,-6.49993c0,0 -6.49993,-9.66655 -6.49993,-9.66655c0,0 -1.66664,-14.83317 -1.66664,-14.83317c0,0 4.99994,-15.99981 4.99994,-15.99981c0,0 10.66654,-8.49991 10.49988,-8.49991c0.16666,0 9.16656,-4.16661 8.9999,-4.16661c0.16666,0 9.49988,-0.99999 9.49988,-0.99999z"/>
  </g>
</svg>