<svg width="100" height="85" xmlns="http://www.w3.org/2000/svg">
  <g id="svg_element">
    <path stroke-width="1.5" stroke="#000" fill="none" d="m1.77421,51.59874c0,0 -1.12498,-7.99986 0.37499,-12.12479c1.49998,-4.12493 7.87487,-12.99978 17.6247,-17.99969c9.74984,-4.99992 26.62455,-6.3749 31.99946,-5.9999c5.37491,0.37499 23.87459,2.37496 28.62451,5.8749c4.74992,3.49994 11.49981,9.24984 14.49976,12.62478c2.99995,3.37495 4.12493,15.62474 3.99993,14.99975c-0.125,-0.62499 -0.62499,6.87488 -0.49999,7.74987c0.125,0.87498 -12.62479,10.12482 -14.24976,11.4998c-1.62497,1.37498 -18.49969,14.87475 -18.99968,13.37477c-0.49999,-1.49997 -27.62453,3.62494 -36.49938,2.24997c-8.87485,-1.37498 -25.74956,-14.99975 -24.24958,-16.12473c1.49997,-1.12498 -2.37496,1.12498 -2.87495,-7.12488c-0.5,-8.24986 0.24999,-8.99985 0.24999,-8.99985z"/>
  </g>
</svg>